# xmcd CD database file
#
# Track frame offsets:
#	150
#	4370
#	21325
#	43482
#	58990
#	73605
#	85247
#	98942
#	117437
#	135217
#	155462
#	168397
#	184335
#	188507
#	206040
#	221797
#	233797
#	251925
#	265527
#	276760
#	296717
#
# Disc length: 4169 seconds
#
# Revision: 2
# Processed by: cddbd v1.5.2PL0 Copyright (c) Steve Scherf et al.
# Submitted via: CDex 1.82
#
DISCID=44104715
DTITLE=Munster's Old Merry Tale Jazzband - Like Ice in the Sunshine
DYEAR=1900
DGENRE=Jazz
TTITLE0=0 Uhr Eierschale
TTITLE1=Omo Pupa
TTITLE2=Nobody Knows The Troubles I've Seen
TTITLE3=Messengers Blues
TTITLE4=Einstweilige Verfugung
TTITLE5=Memory Blues
TTITLE6=Saratoga Shout
TTITLE7=Everybody Loves Saturday Night
TTITLE8=Allotria Swing
TTITLE9=Zulukonig
TTITLE10=Colognac
TTITLE11=Hindustan
TTITLE12=0 Uhr Eierschale
TTITLE13=Ice Cream
TTITLE14=Ganz Allein Am Montag
TTITLE15=Dusty Rag
TTITLE16=Gino Ginelli
TTITLE17=Glory Hallelujah
TTITLE18=Am Sonntag Will Mein Susser
TTITLE19=Skokian
TTITLE20=Lonesome
EXTD=
EXTT0=
EXTT1=
EXTT2=
EXTT3=
EXTT4=
EXTT5=
EXTT6=
EXTT7=
EXTT8=
EXTT9=
EXTT10=
EXTT11=
EXTT12=
EXTT13=
EXTT14=
EXTT15=
EXTT16=
EXTT17=
EXTT18=
EXTT19=
EXTT20=
PLAYORDER=
